<svg width="14" height="19" viewBox="0 0 14 19" fill="none" xmlns="http://www.w3.org/2000/svg">
<path d="M13.6668 18.3334H12.0002V16.6667C12.0002 16.0037 11.7368 15.3678 11.2679 14.8989C10.7991 14.4301 10.1632 14.1667 9.50016 14.1667H4.50016C3.83712 14.1667 3.20124 14.4301 2.7324 14.8989C2.26355 15.3678 2.00016 16.0037 2.00016 16.6667V18.3334H0.333496V16.6667C0.333496 15.5616 0.772483 14.5018 1.55388 13.7204C2.33529 12.939 3.39509 12.5 4.50016 12.5H9.50016C10.6052 12.5 11.665 12.939 12.4464 13.7204C13.2278 14.5018 13.6668 15.5616 13.6668 16.6667V18.3334ZM7.00016 10.8334C6.34355 10.8334 5.69337 10.704 5.08675 10.4528C4.48012 10.2015 3.92892 9.8332 3.46463 9.36891C3.00034 8.90461 2.63204 8.35342 2.38076 7.74679C2.12949 7.14016 2.00016 6.48998 2.00016 5.83337C2.00016 5.17676 2.12949 4.52658 2.38076 3.91996C2.63204 3.31333 3.00034 2.76213 3.46463 2.29784C3.92892 1.83355 4.48012 1.46525 5.08675 1.21398C5.69337 0.962703 6.34355 0.833374 7.00016 0.833374C8.32624 0.833374 9.59801 1.36016 10.5357 2.29784C11.4734 3.23552 12.0002 4.50729 12.0002 5.83337C12.0002 7.15946 11.4734 8.43123 10.5357 9.36891C9.59801 10.3066 8.32624 10.8334 7.00016 10.8334ZM7.00016 9.16671C7.88422 9.16671 8.73206 8.81552 9.35718 8.1904C9.98231 7.56528 10.3335 6.71743 10.3335 5.83337C10.3335 4.94932 9.98231 4.10147 9.35718 3.47635C8.73206 2.85123 7.88422 2.50004 7.00016 2.50004C6.11611 2.50004 5.26826 2.85123 4.64314 3.47635C4.01802 4.10147 3.66683 4.94932 3.66683 5.83337C3.66683 6.71743 4.01802 7.56528 4.64314 8.1904C5.26826 8.81552 6.11611 9.16671 7.00016 9.16671Z" fill="#6D787E"/>
</svg>